<svg xmlns="http://www.w3.org/2000/svg" viewBox="0 0 512 512" role="img" aria-label="Sagitta Defense shield">
  <defs>
    <linearGradient id="gold" x1="92" y1="44" x2="426" y2="458" gradientUnits="userSpaceOnUse">
      <stop offset="0" stop-color="#fff2a8" />
      <stop offset="0.32" stop-color="#d9b15a" />
      <stop offset="0.65" stop-color="#8a570c" />
      <stop offset="1" stop-color="#f1d18a" />
    </linearGradient>
    <linearGradient id="edge" x1="256" y1="72" x2="256" y2="474" gradientUnits="userSpaceOnUse">
      <stop offset="0" stop-color="#23202b" />
      <stop offset="1" stop-color="#05030b" />
    </linearGradient>
    <filter id="shadow" x="-20%" y="-20%" width="140%" height="145%">
      <feDropShadow dx="0" dy="22" stdDeviation="18" flood-color="#000000" flood-opacity="0.5" />
    </filter>
  </defs>
  <rect width="512" height="512" rx="96" fill="#070511" />
  <path
    d="M256 28c48 42 106 70 178 82v143c0 113-64 185-178 231C142 438 78 366 78 253V110c72-12 130-40 178-82Z"
    fill="url(#gold)"
    filter="url(#shadow)"
  />
  <path
    d="M256 68c39 32 88 55 146 68v119c0 88-49 146-146 187-97-41-146-99-146-187V136c58-13 107-36 146-68Z"
    fill="url(#edge)"
  />
  <path
    d="M256 94c33 25 73 44 121 56v103c0 72-39 120-121 157-82-37-121-85-121-157V150c48-12 88-31 121-56Z"
    fill="#0b0812"
    stroke="#d9b15a"
    stroke-width="10"
  />
  <path d="M256 94v316" stroke="#ffffff" stroke-opacity="0.08" stroke-width="3" />
  <path
    d="M148 150c47-12 83-30 108-56 25 26 61 44 108 56"
    fill="none"
    stroke="#fff2a8"
    stroke-linecap="round"
    stroke-width="12"
    opacity="0.7"
  />
</svg>
